<mxfile host="app.diagrams.net" modified="2024-02-22T10:01:23.272Z" agent="Mozilla/5.0 (Windows NT 10.0; Win64; x64; rv:120.0) Gecko/20100101 Firefox/120.0" etag="XWIBwhYGZ1uyPd0gpfL-" version="23.0.2" type="device">
  <diagram name="Page-1" id="13e1069c-82ec-6db2-03f1-153e76fe0fe0">
    <mxGraphModel dx="1050" dy="511" grid="1" gridSize="10" guides="1" tooltips="1" connect="1" arrows="1" fold="1" page="1" pageScale="1" pageWidth="1100" pageHeight="850" background="none" math="0" shadow="0">
      <root>
        <mxCell id="0" />
        <mxCell id="1" parent="0" />
        <mxCell id="7baba1c4bc27f4b0-11" value="int n" style="html=1;verticalAlign=bottom;endArrow=block;labelBackgroundColor=none;fontFamily=Verdana;fontSize=12;edgeStyle=elbowEdgeStyle;elbow=vertical;exitX=1.7;exitY=0.031;exitDx=0;exitDy=0;exitPerimeter=0;" parent="1" source="EsR4Vg0_q4SP54D6hTx2-8" target="EsR4Vg0_q4SP54D6hTx2-10" edge="1">
          <mxGeometry relative="1" as="geometry">
            <mxPoint x="150" y="180" as="sourcePoint" />
            <mxPoint x="270" y="180" as="targetPoint" />
          </mxGeometry>
        </mxCell>
        <mxCell id="9mPq3Oo1lNdpMNNsO3BX-12" value="n-1" style="html=1;verticalAlign=bottom;endArrow=block;labelBackgroundColor=none;fontFamily=Verdana;fontSize=12;elbow=vertical;edgeStyle=orthogonalEdgeStyle;curved=1;exitX=1.038;exitY=0.345;exitPerimeter=0;" parent="1" edge="1" target="EsR4Vg0_q4SP54D6hTx2-10">
          <mxGeometry relative="1" as="geometry">
            <mxPoint x="410" y="380" as="sourcePoint" />
            <mxPoint x="415" y="418" as="targetPoint" />
            <Array as="points">
              <mxPoint x="465" y="380" />
              <mxPoint x="465" y="418" />
            </Array>
          </mxGeometry>
        </mxCell>
        <mxCell id="9mPq3Oo1lNdpMNNsO3BX-13" value="n-2" style="html=1;verticalAlign=bottom;endArrow=block;labelBackgroundColor=none;fontFamily=Verdana;fontSize=12;elbow=vertical;edgeStyle=orthogonalEdgeStyle;curved=1;entryX=1;entryY=0.286;entryPerimeter=0;exitX=1.038;exitY=0.345;exitPerimeter=0;" parent="1" edge="1">
          <mxGeometry relative="1" as="geometry">
            <mxPoint x="405" y="450" as="sourcePoint" />
            <mxPoint x="410" y="488" as="targetPoint" />
            <Array as="points">
              <mxPoint x="460" y="450" />
              <mxPoint x="460" y="488" />
            </Array>
          </mxGeometry>
        </mxCell>
        <mxCell id="9mPq3Oo1lNdpMNNsO3BX-14" value="+" style="text;html=1;align=center;verticalAlign=middle;resizable=0;points=[];autosize=1;strokeColor=none;fillColor=none;" parent="1" vertex="1">
          <mxGeometry x="420" y="425" width="30" height="30" as="geometry" />
        </mxCell>
        <mxCell id="EsR4Vg0_q4SP54D6hTx2-8" value="" style="html=1;points=[[0,0,0,0,5],[0,1,0,0,-5],[1,0,0,0,5],[1,1,0,0,-5]];perimeter=orthogonalPerimeter;outlineConnect=0;targetShapes=umlLifeline;portConstraint=eastwest;newEdgeStyle={&quot;curved&quot;:0,&quot;rounded&quot;:0};" vertex="1" parent="1">
          <mxGeometry x="140" y="170" width="10" height="390" as="geometry" />
        </mxCell>
        <mxCell id="EsR4Vg0_q4SP54D6hTx2-9" value="Fibonacci" style="shape=umlLifeline;perimeter=lifelinePerimeter;whiteSpace=wrap;html=1;container=1;dropTarget=0;collapsible=0;recursiveResize=0;outlineConnect=0;portConstraint=eastwest;newEdgeStyle={&quot;curved&quot;:0,&quot;rounded&quot;:0};" vertex="1" parent="1">
          <mxGeometry x="95" y="90" width="100" height="80" as="geometry" />
        </mxCell>
        <mxCell id="EsR4Vg0_q4SP54D6hTx2-10" value="" style="html=1;points=[[0,0,0,0,5],[0,1,0,0,-5],[1,0,0,0,5],[1,1,0,0,-5]];perimeter=orthogonalPerimeter;outlineConnect=0;targetShapes=umlLifeline;portConstraint=eastwest;newEdgeStyle={&quot;curved&quot;:0,&quot;rounded&quot;:0};" vertex="1" parent="1">
          <mxGeometry x="400" y="150" width="10" height="400" as="geometry" />
        </mxCell>
        <mxCell id="EsR4Vg0_q4SP54D6hTx2-11" value="&lt;div style=&quot;background-color: rgb(255, 255, 255); color: rgb(8, 8, 8); font-family: &amp;quot;JetBrains Mono&amp;quot;, monospace;&quot;&gt;&lt;div style=&quot;background-color: rgb(255, 255, 255); color: rgb(8, 8, 8); font-family: &amp;quot;JetBrains Mono&amp;quot;, monospace;&quot;&gt;n&amp;lt;=1&lt;br&gt;&lt;/div&gt;&lt;/div&gt;" style="shape=umlFrame;whiteSpace=wrap;html=1;pointerEvents=0;" vertex="1" parent="1">
          <mxGeometry x="280" y="210" width="210" height="140" as="geometry" />
        </mxCell>
        <mxCell id="EsR4Vg0_q4SP54D6hTx2-13" value="&lt;div&gt;return n&lt;/div&gt;" style="html=1;verticalAlign=bottom;endArrow=open;dashed=1;endSize=8;curved=0;rounded=0;exitX=0;exitY=0.429;exitDx=0;exitDy=0;exitPerimeter=0;" edge="1" parent="1" source="EsR4Vg0_q4SP54D6hTx2-11">
          <mxGeometry relative="1" as="geometry">
            <mxPoint x="560" y="330" as="sourcePoint" />
            <mxPoint x="160" y="270" as="targetPoint" />
          </mxGeometry>
        </mxCell>
        <mxCell id="EsR4Vg0_q4SP54D6hTx2-14" value="return" style="html=1;verticalAlign=bottom;endArrow=open;dashed=1;endSize=8;curved=0;rounded=0;exitX=-0.005;exitY=0.931;exitDx=0;exitDy=0;exitPerimeter=0;" edge="1" parent="1" source="EsR4Vg0_q4SP54D6hTx2-16" target="EsR4Vg0_q4SP54D6hTx2-8">
          <mxGeometry relative="1" as="geometry">
            <mxPoint x="560" y="340" as="sourcePoint" />
            <mxPoint x="160" y="510" as="targetPoint" />
            <Array as="points">
              <mxPoint x="250" y="510" />
            </Array>
          </mxGeometry>
        </mxCell>
        <mxCell id="EsR4Vg0_q4SP54D6hTx2-15" value="&lt;div&gt;fibonacciRecursive&lt;/div&gt;" style="shape=umlLifeline;perimeter=lifelinePerimeter;whiteSpace=wrap;html=1;container=1;dropTarget=0;collapsible=0;recursiveResize=0;outlineConnect=0;portConstraint=eastwest;newEdgeStyle={&quot;curved&quot;:0,&quot;rounded&quot;:0};" vertex="1" parent="1">
          <mxGeometry x="355" y="90" width="100" height="60" as="geometry" />
        </mxCell>
        <mxCell id="EsR4Vg0_q4SP54D6hTx2-16" value="n&amp;gt;1" style="shape=umlFrame;whiteSpace=wrap;html=1;pointerEvents=0;" vertex="1" parent="1">
          <mxGeometry x="280" y="360" width="210" height="160" as="geometry" />
        </mxCell>
      </root>
    </mxGraphModel>
  </diagram>
</mxfile>
